HIERARCHY
ROOT Hips
{
	OFFSET 0.00000 0.00000 0.00000
	CHANNELS 6 Xposition Yposition Zposition Zrotation Yrotation Xrotation 
	JOINT LHipJoint
	{
		OFFSET 0 0 0
		CHANNELS 3 Zrotation Yrotation Xrotation
		JOINT LeftUpLeg
		{
			OFFSET 1.61328 -1.70571 0.84375
			CHANNELS 3 Zrotation Yrotation Xrotation
			JOINT LeftLeg
			{
				OFFSET 2.32400 -6.38513 0.00000
				CHANNELS 3 Zrotation Yrotation Xrotation
				JOINT LeftFoot
				{
					OFFSET 2.58843 -7.11166 0.00000
					CHANNELS 3 Zrotation Yrotation Xrotation
					JOINT LeftToeBase
					{
						OFFSET 0.17200 -0.47257 2.47970
						CHANNELS 3 Zrotation Yrotation Xrotation
						End Site
						{
							OFFSET 0.00000 -0.00000 1.26912
						}
					}
				}
			}
		}
	}
	JOINT RHipJoint
	{
		OFFSET 0 0 0
		CHANNELS 3 Zrotation Yrotation Xrotation
		JOINT RightUpLeg
		{
			OFFSET -1.49930 -1.70570 0.84375
			CHANNELS 3 Zrotation Yrotation Xrotation
			JOINT RightLeg
			{
				OFFSET -2.30458 -6.33178 0.00000
				CHANNELS 3 Zrotation Yrotation Xrotation
				JOINT RightFoot
				{
					OFFSET -2.62261 -7.20556 0.00000
					CHANNELS 3 Zrotation Yrotation Xrotation
					JOINT RightToeBase
					{
						OFFSET -0.18709 -0.51403 2.51340
						CHANNELS 3 Zrotation Yrotation Xrotation
						End Site
						{
							OFFSET -0.00000 -0.00000 1.28858
						}
					}
				}
			}
		}
	}
	JOINT LowerBack
	{
		OFFSET 0 0 0
		CHANNELS 3 Zrotation Yrotation Xrotation
		JOINT Spine
		{
			OFFSET -0.03798 2.19274 -0.19881
			CHANNELS 3 Zrotation Yrotation Xrotation
			JOINT Spine1
			{
				OFFSET -0.00024 2.19460 0.05248
				CHANNELS 3 Zrotation Yrotation Xrotation
				JOINT Neck
				{
					OFFSET 0 0 0
					CHANNELS 3 Zrotation Yrotation Xrotation
					JOINT Neck1
					{
						OFFSET -0.00746 1.82323 0.17286
						CHANNELS 3 Zrotation Yrotation Xrotation
						JOINT Head
						{
							OFFSET 0.11826 1.82121 -0.27841
							CHANNELS 3 Zrotation Yrotation Xrotation
							End Site
							{
								OFFSET 0.03496 1.85543 -0.11495
							}
						}
					}
				}
				JOINT LeftShoulder
				{
					OFFSET 0 0 0
					CHANNELS 3 Zrotation Yrotation Xrotation
					JOINT LeftArm
					{
						OFFSET 3.71926 0.78840 0.25473
						CHANNELS 3 Zrotation Yrotation Xrotation
						JOINT LeftForeArm
						{
							OFFSET 5.37587 -0.00000 0.00000
							CHANNELS 3 Zrotation Yrotation Xrotation
							JOINT LeftHand
							{
								OFFSET 3.35977 -0.00000 0.00000
								CHANNELS 3 Zrotation Yrotation Xrotation
								JOINT LeftFingerBase
								{
									OFFSET 0 0 0
									CHANNELS 3 Zrotation Yrotation Xrotation
									JOINT LeftHandIndex1
									{
										OFFSET 0.56186 -0.00000 0.00000
										CHANNELS 3 Zrotation Yrotation Xrotation
										End Site
										{
											OFFSET 0.45299 -0.00000 0.00000
										}
									}
								}
								JOINT LThumb
								{
									OFFSET 0 0 0
									CHANNELS 3 Zrotation Yrotation Xrotation
									End Site
									{
										OFFSET 0.45990 -0.00000 0.45990
									}
								}
							}
						}
					}
				}
				JOINT RightShoulder
				{
					OFFSET 0 0 0
					CHANNELS 3 Zrotation Yrotation Xrotation
					JOINT RightArm
					{
						OFFSET -3.65136 0.56074 0.01624
						CHANNELS 3 Zrotation Yrotation Xrotation
						JOINT RightForeArm
						{
							OFFSET -5.22819 -0.00000 0.00000
							CHANNELS 3 Zrotation Yrotation Xrotation
							JOINT RightHand
							{
								OFFSET -3.40764 -0.00000 0.00000
								CHANNELS 3 Zrotation Yrotation Xrotation
								JOINT RightFingerBase
								{
									OFFSET 0 0 0
									CHANNELS 3 Zrotation Yrotation Xrotation
									JOINT RightHandIndex1
									{
										OFFSET -0.58325 -0.00000 0.00000
										CHANNELS 3 Zrotation Yrotation Xrotation
										End Site
										{
											OFFSET -0.47024 -0.00000 0.00000
										}
									}
								}
								JOINT RThumb
								{
									OFFSET 0 0 0
									CHANNELS 3 Zrotation Yrotation Xrotation
									End Site
									{
										OFFSET -0.47742 -0.00000 0.47742
									}
								}
							}
						}
					}
				}
			}
		}
	}
}
MOTION
Frames: 11
Frame Time: .0083333
37.6626 15.3446 -7.0085 -1092.3900 -88.1324 381.9580 0.0000 0.0000 0.0000 -29.4578 -0.1574 -55.4218 7.4958 15.7356 50.7255 0.2602 9.3244 -17.1053 0.0611 1.5951 4.3879 0.0000 0.0000 0.0000 22.3379 5.0415 -19.3392 -10.9909 -17.9306 62.7519 0.1384 22.5098 -14.8287 -0.2926 -3.4782 9.6131 -0.3161 1.0646 17.1012 0.8744 0.6584 10.3968 0.9887 0.0007 1.4971 -5.3589 -6.1299 6.1502 14.8767 -6.9781 -19.0834 6.1557 -4.4609 -5.9626 0.0000 0.0000 0.0000 -61.4372 -22.2079 17.1694 76.0701 -59.2540 -47.9666 -0.0000 0.0000 -13.5310 36.4951 16.1107 11.6015 -7.1250 0.0000 -0.0000 8.7209 49.5430 0.9835 0.0000 0.0000 0.0000 69.1897 18.5474 26.0226 -80.6261 59.6654 -51.8911 0.0000 0.0000 8.7618 -45.3332 11.7558 -11.6469 7.1250 -0.0000 -0.0000 -12.2506 -13.7536 -9.2039
37.6159 15.3470 -7.0019 -1093.5300 -88.1669 383.1650 0.0000 0.0000 0.0000 -29.3833 -0.2109 -55.3695 7.5402 15.7704 50.8891 0.2781 9.3421 -17.3482 0.0568 1.5385 4.2320 0.0000 0.0000 0.0000 22.3070 4.9945 -19.2689 -10.9815 -17.9260 62.7215 0.1895 22.5079 -14.4346 -0.3043 -3.5469 9.8054 -0.3327 1.0725 17.1263 0.8493 0.6652 10.3979 0.9706 0.0039 1.4852 -5.3282 -6.0707 6.1287 14.8218 -6.8984 -19.1488 6.1327 -4.4219 -5.9920 -0.0000 -0.0000 0.0000 -61.2676 -22.4051 17.1968 76.0646 -59.2534 -47.9618 -0.0000 0.0000 -13.5313 36.5180 16.1274 11.6223 -7.1250 0.0000 -0.0000 8.7443 49.5672 0.9915 -0.0000 -0.0000 0.0000 69.1767 18.5750 26.0749 -80.8185 59.6791 -52.0572 0.0000 0.0000 8.7523 -45.3210 11.7216 -11.6097 7.1250 -0.0000 -0.0000 -12.2499 -13.8024 -9.1904
37.5690 15.3492 -6.9955 -1094.4700 -88.1805 384.1750 0.0000 0.0000 0.0000 -29.3160 -0.2693 -55.3063 7.5828 15.8036 51.0455 0.2964 9.3560 -17.5887 0.0528 1.4833 4.0797 0.0000 0.0000 0.0000 22.2781 4.9487 -19.1934 -10.9720 -17.9214 62.6906 0.2388 22.4989 -14.0421 -0.3148 -3.6066 9.9724 -0.3452 1.0751 17.1527 0.8262 0.6662 10.3965 0.9530 0.0044 1.4701 -5.3031 -6.0132 6.1007 14.7745 -6.8209 -19.2065 6.1124 -4.3839 -6.0169 0.0000 0.0000 0.0000 -61.1033 -22.6023 17.2325 76.0540 -59.2522 -47.9528 -0.0000 0.0000 -13.5192 36.5535 16.1498 11.6523 -7.1250 0.0000 -0.0000 8.7808 49.6005 1.0029 0.0000 0.0000 0.0000 69.1619 18.5904 26.1237 -80.9975 59.6915 -52.2117 0.0000 0.0000 8.7408 -45.2965 11.6967 -11.5763 7.1250 -0.0000 -0.0000 -12.2393 -13.8416 -9.1717
37.5223 15.3513 -6.9895 -1095.3500 -88.1830 385.1280 0.0000 0.0000 0.0000 -29.2538 -0.3241 -55.2471 7.6242 15.8357 51.1974 0.3156 9.3632 -17.8278 0.0491 1.4301 3.9330 0.0000 0.0000 0.0000 22.2547 4.9189 -19.1202 -10.9630 -17.9170 62.6615 0.2846 22.4741 -13.6580 -0.3227 -3.6511 10.0972 -0.3574 1.0772 17.1763 0.8057 0.6672 10.3909 0.9381 0.0051 1.4518 -5.2815 -5.9565 6.0706 14.7325 -6.7443 -19.2587 6.0939 -4.3462 -6.0392 -0.0000 -0.0000 0.0000 -60.9458 -22.7986 17.2760 76.0424 -59.2509 -47.9428 -0.0000 0.0000 -13.4997 36.5973 16.1714 11.6852 -7.1250 0.0000 -0.0000 8.8259 49.6345 1.0156 -0.0000 -0.0000 0.0000 69.1457 18.5921 26.1669 -81.1656 59.7030 -52.3568 0.0000 0.0000 8.7369 -45.2648 11.6794 -11.5475 7.1250 -0.0000 -0.0000 -12.2225 -13.8724 -9.1503
37.4752 15.3534 -6.9840 -1095.7600 -88.1660 385.6060 0.0000 0.0000 0.0000 -29.2072 -0.3730 -55.1738 7.6643 15.8667 51.3443 0.3365 9.3547 -18.0662 0.0457 1.3791 3.7925 0.0000 0.0000 0.0000 22.2297 4.8825 -19.0369 -10.9539 -17.9125 62.6318 0.3276 22.4400 -13.2825 -0.3295 -3.6891 10.2037 -0.3763 1.0746 17.2012 0.7867 0.6611 10.3854 0.9296 0.0019 1.4332 -5.2648 -5.9005 6.0337 14.6963 -6.6689 -19.2989 6.0772 -4.3086 -6.0558 -0.0000 0.0000 0.0000 -60.7967 -22.9926 17.3231 76.0368 -59.2503 -47.9380 -0.0000 0.0000 -13.4779 36.6588 16.2030 11.7324 -7.1250 0.0000 -0.0000 8.8893 49.6837 1.0338 -0.0000 0.0000 0.0000 69.1277 18.5837 26.2061 -81.3221 59.7135 -52.4919 0.0000 0.0000 8.7417 -45.2345 11.6687 -11.5255 7.1250 -0.0000 -0.0000 -12.2053 -13.8940 -9.1311
37.4283 15.3554 -6.9791 -1096.1100 -88.1549 386.0250 0.0000 0.0000 0.0000 -29.1710 -0.4015 -55.1135 7.7042 15.8973 51.4900 0.3591 9.3298 -18.3044 0.0426 1.3315 3.6614 0.0000 0.0000 0.0000 22.2035 4.8667 -18.9579 -10.9465 -17.9088 62.6079 0.3685 22.3937 -12.9077 -0.3364 -3.7271 10.3101 -0.4064 1.0779 17.2181 0.7685 0.6616 10.3792 0.9272 0.0017 1.4175 -5.2556 -5.8470 5.9890 14.6683 -6.5970 -19.3300 6.0635 -4.2725 -6.0671 -0.0000 -0.0000 0.0000 -60.6553 -23.1914 17.3705 76.0321 -59.2498 -47.9339 -0.0000 0.0000 -13.4592 36.7237 16.2335 11.7803 -7.1250 0.0000 -0.0000 8.9562 49.7323 1.0524 -0.0000 -0.0000 0.0000 69.1069 18.5719 26.2373 -81.4591 59.7226 -52.6103 0.0000 0.0000 8.7530 -45.2117 11.6716 -11.5193 7.1250 -0.0000 -0.0000 -12.1899 -13.8957 -9.1185
37.3814 15.3572 -6.9746 -1096.4400 -88.1508 386.4240 0.0000 0.0000 0.0000 -29.1446 -0.4055 -55.0654 7.7439 15.9276 51.6348 0.3837 9.2840 -18.5396 0.0401 1.2923 3.5533 0.0000 0.0000 0.0000 22.1775 4.8670 -18.8816 -10.9410 -17.9061 62.5898 0.4073 22.3339 -12.5321 -0.3448 -3.7730 10.4390 -0.4459 1.0875 17.2309 0.7496 0.6692 10.3720 0.9284 0.0046 1.4027 -5.2528 -5.7974 5.9411 14.6507 -6.5300 -19.3554 6.0541 -4.2389 -6.0746 -0.0000 -0.0000 0.0000 -60.5187 -23.3952 17.4187 76.0269 -59.2492 -47.9294 -0.0000 0.0000 -13.4501 36.7867 16.2622 11.8263 -7.1250 0.0000 -0.0000 9.0213 49.7784 1.0705 -0.0000 -0.0000 0.0000 69.0855 18.5551 26.2624 -81.5801 59.7304 -52.7148 0.0000 0.0000 8.7672 -45.2039 11.6798 -11.5239 7.1250 -0.0000 -0.0000 -12.1831 -13.8865 -9.1157
37.3348 15.3588 -6.9706 -1096.6600 -88.1429 386.7130 0.0000 0.0000 0.0000 -29.1244 -0.3952 -55.0246 7.7838 15.9579 51.7801 0.4083 9.2243 -18.7563 0.0374 1.2483 3.4322 0.0000 0.0000 0.0000 22.1546 4.8692 -18.8111 -10.9383 -17.9047 62.5810 0.4426 22.2577 -12.1643 -0.3542 -3.8234 10.5804 -0.4896 1.0984 17.2432 0.7308 0.6777 10.3652 0.9319 0.0078 1.3884 -5.2561 -5.7529 5.8897 14.6433 -6.4694 -19.3784 6.0489 -4.2087 -6.0794 -0.0000 -0.0000 0.0000 -60.3862 -23.6066 17.4639 76.0168 -59.2481 -47.9207 -0.0000 0.0000 -13.4527 36.8387 16.2856 11.8642 -7.1250 0.0000 -0.0000 9.0751 49.8163 1.0855 -0.0000 -0.0000 0.0000 69.0645 18.5365 26.2813 -81.6838 59.7371 -52.8043 0.0000 0.0000 8.7824 -45.2071 11.6881 -11.5331 7.1250 -0.0000 -0.0000 -12.1835 -13.8745 -9.1191
37.2880 15.3604 -6.9669 -1096.7600 -88.1334 386.8830 0.0000 0.0000 0.0000 -29.1117 -0.3704 -54.9906 7.8241 15.9883 51.9265 0.4332 9.1461 -18.9554 0.0351 1.2099 3.3266 0.0000 0.0000 0.0000 22.1309 4.8657 -18.7478 -10.9382 -17.9047 62.5809 0.4752 22.1675 -11.7999 -0.3649 -3.8806 10.7409 -0.5357 1.1107 17.2491 0.7108 0.6879 10.3591 0.9352 0.0118 1.3781 -5.2612 -5.7130 5.8418 14.6412 -6.4141 -19.4068 6.0464 -4.1818 -6.0856 0.0000 0.0000 0.0000 -60.2562 -23.8256 17.5085 75.9994 -59.2462 -47.9058 -0.0000 0.0000 -13.4653 36.8856 16.3101 11.9008 -7.1250 0.0000 -0.0000 9.1237 49.8545 1.1000 0.0000 0.0000 0.0000 69.0444 18.5171 26.2941 -81.7691 59.7425 -52.8780 0.0000 0.0000 8.7911 -45.2220 11.6939 -11.5444 7.1250 -0.0000 -0.0000 -12.1919 -13.8633 -9.1286
37.2412 15.3619 -6.9633 -1096.8600 -88.1191 387.0580 0.0000 0.0000 0.0000 -29.1002 -0.3367 -54.9657 7.8646 16.0188 52.0737 0.4568 9.0580 -19.1277 0.0331 1.1738 3.2273 0.0000 0.0000 0.0000 22.1124 4.8551 -18.6966 -10.9417 -17.9064 62.5922 0.5033 22.0555 -11.4478 -0.3753 -3.9345 10.8926 -0.5790 1.1232 17.2455 0.6915 0.6990 10.3540 0.9376 0.0164 1.3739 -5.2625 -5.6759 5.8003 14.6361 -6.3625 -19.4438 6.0432 -4.1571 -6.0955 -0.0000 -0.0000 0.0000 -60.1286 -24.0491 17.5530 75.9779 -59.2439 -47.8874 -0.0000 0.0000 -13.4857 36.9242 16.3313 11.9316 -7.1250 0.0000 -0.0000 9.1637 49.8871 1.1123 -0.0000 -0.0000 0.0000 69.0241 18.5001 26.2996 -81.8341 59.7465 -52.9341 0.0000 0.0000 8.7904 -45.2355 11.6924 -11.5483 7.1250 -0.0000 -0.0000 -12.2009 -13.8620 -9.1361
37.1943 15.3633 -6.9597 -1096.9300 -88.0966 387.2000 0.0000 0.0000 0.0000 -29.0884 -0.3015 -54.9453 7.9053 16.0492 52.2210 0.4790 8.9632 -19.2770 0.0316 1.1466 3.1524 0.0000 0.0000 0.0000 22.0984 4.8322 -18.6589 -10.9490 -17.9101 62.6159 0.5285 21.9247 -11.0976 -0.3866 -3.9928 11.0564 -0.6158 1.1339 17.2343 0.6725 0.7088 10.3500 0.9370 0.0206 1.3748 -5.2546 -5.6399 5.7624 14.6201 -6.3125 -19.4881 6.0356 -4.1331 -6.1091 -0.0000 -0.0000 0.0000 -60.0028 -24.2791 17.5974 75.9477 -59.2406 -47.8614 -0.0000 0.0000 -13.5120 36.9528 16.3500 11.9566 -7.1250 0.0000 -0.0000 9.1934 49.9149 1.1223 -0.0000 -0.0000 0.0000 69.0049 18.4866 26.2975 -81.8796 59.7494 -52.9734 0.0000 0.0000 8.7742 -45.2396 11.6871 -11.5449 7.1250 -0.0000 -0.0000 -12.2047 -13.8682 -9.1374
